<svg xmlns="http://www.w3.org/2000/svg" viewBox="0 0 64 64" aria-labelledby="title" role="img">
  <title>Burger icon</title>
  <g fill="none" stroke="none">
    <path fill="#f4c430" d="M8 26c0-7.18 10.75-12 24-12s24 4.82 24 12"/>
    <rect x="8" y="26" width="48" height="6" rx="3" fill="#f08c00"/>
    <rect x="6" y="32" width="52" height="10" rx="5" fill="#f4c430"/>
    <path fill="#7d5a43" d="M9 42h46c2.76 0 5 2.24 5 5v1c0 1.66-1.34 3-3 3H7c-1.66 0-3-1.34-3-3v-1c0-2.76 2.24-5 5-5z"/>
    <circle cx="18" cy="23" r="1.5" fill="#fff7d6"/>
    <circle cx="28" cy="21" r="1.5" fill="#fff7d6"/>
    <circle cx="38" cy="23" r="1.5" fill="#fff7d6"/>
    <circle cx="48" cy="21" r="1.5" fill="#fff7d6"/>
  </g>
</svg>